<?xml version="1.0" encoding="UTF-8"?>
<svg width="47px" height="32px" viewBox="0 0 47 32" version="1.1" xmlns="http://www.w3.org/2000/svg" xmlns:xlink="http://www.w3.org/1999/xlink">
    <!-- Generator: Sketch 51 (57462) - http://www.bohemiancoding.com/sketch -->
    <title>Adidas_Logo</title>
    <desc>Created with Sketch.</desc>
    <defs></defs>
    <g id="Page-1" stroke="none" stroke-width="1" fill="none" fill-rule="evenodd">
        <g id="Adidas_Logo" fill="#A1A7B3" fill-rule="nonzero">
            <g id="Group" transform="translate(43.225631, 27.504466) scale(-1, 1) rotate(-180.000000) translate(-43.225631, -27.504466) translate(39.497476, 23.310291)">
                <g transform="translate(-0.000000, -0.000000)" id="Shape">
                    <g transform="translate(0.125452, 0.064474)">
                        <path d="M3.71417476,0 C1.53487456,0 0.242300583,1.11522874 0.143396505,2.72156738 L2.22720311,2.72156738 C2.22720311,2.18612117 2.52391534,1.47332971 3.81307883,1.4289934 C4.70662602,1.4289934 5.20114641,1.96443961 5.20114641,2.36687689 C5.10224233,2.99099573 4.30759922,3.03533204 3.5163666,3.17175146 C2.62281942,3.3013499 1.93049087,3.48210563 1.43256,3.70378718 C0.740231456,4.06188816 0.34120466,4.82242641 0.34120466,5.62389049 C0.34120466,7.05288388 1.53487456,8.16811262 3.61527068,8.16811262 C5.6001732,8.16811262 6.8893367,7.1415565 6.98483029,5.57955417 L5.00333825,5.57955417 C5.00333825,5.97858097 4.90443417,6.6504466 3.71417476,6.6504466 C2.91953165,6.6504466 2.42501126,6.51743767 2.32610718,5.93765515 C2.32610718,5.13278058 4.01088699,5.17711689 5.30005049,4.86676272 C6.4903099,4.55299806 7.28495301,3.79587029 7.28495301,2.72156738 C7.28495301,0.757127767 5.69907728,0 3.71417476,0"></path>
                    </g>
                </g>
            </g>
            <g id="Group" transform="translate(10.646524, 17.593010) scale(-1, 1) rotate(-180.000000) translate(-10.646524, -17.593010) translate(5.364971, 14.408544)">
                <polyline id="Shape" points="0 2.3231068 6.84143379 6.29632233 10.5111161 0.000566213592 1.2891635 0.000566213592"></polyline>
            </g>
            <g id="Group" transform="translate(21.460194, 27.358447) scale(-1, 1) rotate(-180.000000) translate(-21.460194, -27.358447) translate(19.751456, 23.319612)" stroke="#A1A7B3" stroke-width="2">
                <path d="M0,0 L0,7.94643107" id="Shape"></path>
            </g>
            <g id="Group" transform="translate(4.545243, 27.575146) scale(-1, 1) rotate(-180.000000) translate(-4.545243, -27.575146) translate(0.118058, 23.303301)">
                <g transform="translate(-0.000000, -0.000000)" id="Shape">
                    <g transform="translate(0.059111, 0.125212)">
                        <path d="M2.01242718,4.18019417 C2.01242718,2.9319565 3.10378252,1.90540039 4.29063146,1.90540039 C5.58320544,1.90540039 6.57224621,2.9319565 6.57224621,4.18019417 C6.57224621,5.38409553 5.58320544,6.45498796 4.29063146,6.45498796 C3.10378252,6.45498796 2.01242718,5.38409553 2.01242718,4.18019417 M4.19172738,0.0739697087 C2.01242718,0.0739697087 0.129839223,1.90540039 0.129839223,4.18019417 C0.129839223,6.45498796 2.01242718,8.24208233 4.19172738,8.24208233 C5.08527456,8.24208233 5.87991767,8.01699029 6.57224621,7.52929087 L6.57224621,8.15340971 L8.55714874,8.15340971 L8.55714874,0.254725437 L6.57224621,0.254725437 L6.57224621,0.74583534 C5.97882175,0.299061748 5.08527456,0.0739697087 4.19172738,0.0739697087"></path>
                    </g>
                </g>
            </g>
            <g id="Group" transform="translate(30.714563, 10.445049) scale(-1, 1) rotate(-180.000000) translate(-30.714563, -10.445049) translate(21.238835, 0.114951)">
                <polyline id="Shape" points="9.61009709 0 0.091432233 16.6022431 6.93286602 20.619795 18.8320497 0"></polyline>
            </g>
            <g id="Group" transform="translate(13.689320, 26.254757) scale(-1, 1) rotate(-180.000000) translate(-13.689320, -26.254757) translate(9.262136, 20.662524)">
                <g transform="translate(0.000000, -0.000000)" id="Shape">
                    <g transform="translate(0.038082, 0.125212)">
                        <path d="M2.01242718,4.18019417 C2.01242718,2.9319565 3.00487845,1.90540039 4.29404194,1.90540039 C5.48089087,1.90540039 6.5756567,2.9319565 6.5756567,4.18019417 C6.5756567,5.38409553 5.48089087,6.45498796 4.29404194,6.45498796 C3.00487845,6.45498796 2.01242718,5.38409553 2.01242718,4.18019417 M4.19513786,0.0739697087 C1.91352311,0.0739697087 0.129839223,1.90540039 0.129839223,4.18019417 C0.129839223,6.45498796 1.91352311,8.24208233 4.19513786,8.24208233 C5.08527456,8.24208233 5.87991767,8.01699029 6.5756567,7.52929087 L6.5756567,10.8749771 L8.55714874,10.8749771 L8.55714874,0.254725437 L6.5756567,0.254725437 L6.5756567,0.74583534 C5.87991767,0.299061748 5.08527456,0.0739697087 4.19513786,0.0739697087"></path>
                    </g>
                </g>
            </g>
            <g id="Group" transform="translate(20.698563, 15.058485) scale(-1, 1) rotate(-180.000000) translate(-20.698563, -15.058485) translate(13.397592, 7.291495)">
                <polyline id="Shape" points="0 11.4671845 6.94033786 15.3926532 14.5764148 2.05083417 7.33595417 2.05083417 7.33595417 0.0863945631 5.35446214 0.0863945631 5.35446214 2.05083417"></polyline>
            </g>
            <g id="Group" transform="translate(35.105243, 25.322718) scale(-1, 1) rotate(-180.000000) translate(-35.105243, -25.322718) translate(21.357670, 18.798447)">
                <g transform="translate(0.000000, -0.000000)" id="Shape">
                    <g transform="translate(23.184070, 9.045981)">
                        <path d="M1.08038835,0 C0.582457476,0 0.0879370874,0.446773592 0.0879370874,0.982219806 C0.0879370874,1.51766602 0.582457476,1.96443961 1.08038835,1.96443961 C1.67381282,1.96443961 2.07283961,1.51766602 2.07283961,0.982219806 C2.07283961,0.446773592 1.67381282,0 1.08038835,0 M1.08038835,1.82802019 C0.582457476,1.82802019 0.285745243,1.4289934 0.285745243,0.982219806 C0.285745243,0.535446214 0.582457476,0.133008932 1.08038835,0.133008932 C1.57490874,0.133008932 1.87162097,0.535446214 1.87162097,0.982219806 C1.87162097,1.4289934 1.57490874,1.82802019 1.08038835,1.82802019"></path>
                    </g>
                    <g transform="translate(23.854718, 9.489344)">
                        <path d="M0.614368932,0 L0.416560777,0.446773592 L0.218752621,0.446773592 L0.218752621,0 L0.0686912621,0 L0.0686912621,1.07089243 L0.515464854,1.07089243 C0.614368932,1.07089243 0.812177087,0.93447301 0.812177087,0.757127767 C0.812177087,0.579782524 0.71327301,0.491109903 0.614368932,0.446773592 L0.812177087,0 M0.416560777,0.93447301 L0.218752621,0.93447301 L0.218752621,0.579782524 L0.416560777,0.579782524 C0.614368932,0.579782524 0.614368932,0.624118835 0.614368932,0.757127767 C0.614368932,0.849210874 0.614368932,0.93447301 0.416560777,0.93447301"></path>
                    </g>
                    <g transform="translate(9.155767, 0.125212)">
                        <path d="M2.01242718,4.18019417 C2.01242718,2.9319565 3.00487845,1.90540039 4.29404194,1.90540039 C5.48430136,1.90540039 6.57224621,2.9319565 6.57224621,4.18019417 C6.57224621,5.38409553 5.48430136,6.45498796 4.29404194,6.45498796 C3.00487845,6.45498796 2.01242718,5.38409553 2.01242718,4.18019417 M4.19172738,0.0739697087 C1.91352311,0.0739697087 0.129839223,1.90540039 0.129839223,4.18019417 C0.129839223,6.45498796 1.91352311,8.24208233 4.19172738,8.24208233 C5.08527456,8.24208233 5.87991767,8.01699029 6.57224621,7.52929087 L6.57224621,8.15340971 L8.45824466,8.15340971 L8.45824466,0.254725437 L6.57224621,0.254725437 L6.57224621,0.74583534 C5.87991767,0.299061748 5.08527456,0.0739697087 4.19172738,0.0739697087"></path>
                    </g>
                    <g transform="translate(0.039539, 0.125212)">
                        <path d="M2.01242718,4.18019417 C2.01242718,2.9319565 3.10378252,1.90540039 4.29404194,1.90540039 C5.58320544,1.90540039 6.5756567,2.9319565 6.5756567,4.18019417 C6.5756567,5.38409553 5.58320544,6.45498796 4.29404194,6.45498796 C3.10378252,6.45498796 2.01242718,5.38409553 2.01242718,4.18019417 Z M6.5756567,10.8749771 L8.55714874,10.8749771 L8.55714874,0.254725437 L6.5756567,0.254725437 L6.5756567,0.74583534 C5.97882175,0.299061748 5.18417864,0.0739697087 4.29404194,0.0739697087 C2.01242718,0.0739697087 0.129839223,1.90540039 0.129839223,4.18019417 C0.129839223,6.45498796 2.01242718,8.24208233 4.29404194,8.24208233 C5.18417864,8.24208233 5.97882175,8.01699029 6.5756567,7.52929087 L6.5756567,10.8749771 Z"></path>
                    </g>
                </g>
            </g>
        </g>
    </g>
</svg>