<?xml version="1.0" encoding="UTF-8"?>
<svg width="151px" height="26px" viewBox="0 0 151 26" version="1.1" xmlns="http://www.w3.org/2000/svg" xmlns:xlink="http://www.w3.org/1999/xlink">
    <!-- Generator: Sketch 51 (57462) - http://www.bohemiancoding.com/sketch -->
    <title>Booking.com_logo</title>
    <desc>Created with Sketch.</desc>
    <defs>
        <polygon id="path-1" points="0.794977273 25.7278955 151.136205 25.7278955 151.136205 0.218734091 0.794977273 0.218734091 0.794977273 25.7278955"></polygon>
        <polygon id="path-3" points="0.795136364 0.218718182 151.136427 0.218718182 151.136427 25.7278795 0.795136364 25.7278795"></polygon>
        <polygon id="path-5" points="0.794977273 25.7278955 151.136205 25.7278955 151.136205 0.218734091 0.794977273 0.218734091 0.794977273 25.7278955"></polygon>
        <polygon id="path-7" points="0.795136364 25.2258364 151.104386 25.2258364 151.104386 0.251284091 0.795136364 0.251284091"></polygon>
        <polygon id="path-9" points="0.795136364 0.218718182 151.136427 0.218718182 151.136427 25.7278795 0.795136364 25.7278795"></polygon>
        <polygon id="path-11" points="0.794977273 25.7278955 151.136205 25.7278955 151.136205 0.218734091 0.794977273 0.218734091 0.794977273 25.7278955"></polygon>
        <polygon id="path-13" points="0.795136364 1.49144545 151.136427 1.49144545 151.136427 27.0006068 0.795136364 27.0006068"></polygon>
    </defs>
    <g id="Page-1" stroke="none" stroke-width="1" fill="none" fill-rule="evenodd">
        <g id="Booking.com_logo" transform="translate(-1.000000, -1.000000)">
            <g id="g3358" transform="translate(76.523045, 13.453109) scale(-1, 1) rotate(-180.000000) translate(-76.523045, -13.453109) translate(0.795773, 0.089473)">
                <g id="g3360-Clipped">
                    <mask id="mask-2" fill="white">
                        <use xlink:href="#path-1"></use>
                    </mask>
                    <g id="path3364"></g>
                    <g id="g3360" mask="url(#mask-2)">
                        <g id="g3366-Clipped">
                            <mask id="mask-4" fill="white">
                                <use xlink:href="#path-3"></use>
                            </mask>
                            <g id="path3370"></g>
                            <g id="g3366" mask="url(#mask-4)" fill="#A1A7B3" fill-rule="nonzero">
                                <g transform="translate(14.318182, 5.090909)">
                                    <path d="M45.4339773,17.8445273 C45.4339773,19.1107636 46.4559773,20.1349273 47.7140682,20.1349273 C48.9764545,20.1349273 50.0024318,19.1107636 50.0024318,17.8445273 C50.0024318,16.5799295 48.9764545,15.5546841 47.7140682,15.5546841 C46.4559773,15.5546841 45.4339773,16.5799295 45.4339773,17.8445273" id="path3372"></path>
                                    <path d="M81.4784091,2.61014091 C81.4784091,3.87690227 82.4999318,4.90216364 83.7580227,4.90216364 C85.0199318,4.90216364 86.04575,3.87690227 86.04575,2.61014091 C86.04575,1.346625 85.0199318,0.320281818 83.7580227,0.320281818 C82.4999318,0.320281818 81.4784091,1.346625 81.4784091,2.61014091" id="path3374"></path>
                                    <path d="M7.94102273,3.6001 C5.97354545,3.6001 4.60631818,5.162675 4.60631818,7.39554773 C4.60631818,9.62786364 5.97354545,11.1893568 7.94102273,11.1893568 C9.91979545,11.1893568 11.3021364,9.62786364 11.3021364,7.39554773 C11.3021364,5.12740455 9.94859091,3.6001 7.94102273,3.6001 Z M7.94102273,14.5250795 C3.77856818,14.5250795 0.75775,11.5258659 0.75775,7.39554773 C0.75775,3.26522955 3.77856818,0.266556818 7.94102273,0.266556818 C12.1190682,0.266556818 15.1524545,3.26522955 15.1524545,7.39554773 C15.1524545,11.5258659 12.1190682,14.5250795 7.94102273,14.5250795 Z" id="path3376"></path>
                                    <path d="M41.0095,7.03896136 C40.8477045,7.34344545 40.6622045,7.60125227 40.4646136,7.80585909 L40.3387727,7.93938409 L40.4711364,8.06638636 C40.6622045,8.26774773 40.8575682,8.50655909 41.0459318,8.78334545 L44.7191818,14.2439341 L40.2600227,14.2439341 L37.5001136,9.97251818 C37.3438864,9.743475 37.0284091,9.62786364 36.5562273,9.62786364 L35.9271818,9.62786364 L35.9271818,17.7034136 C35.9271818,19.3186318 34.9209318,19.5384477 33.8338636,19.5384477 L31.9728182,19.5384477 L31.976,0.476588636 L35.9271818,0.476588636 L35.9271818,6.19444318 L36.2973864,6.19444318 C36.7477727,6.19444318 37.0545,6.14234091 37.1951364,5.89756364 L39.3748409,1.78353636 C39.9836818,0.6671 40.5904545,0.476588636 41.7319318,0.476588636 L44.7599091,0.476588636 L42.5047955,4.20690455 L41.0095,7.03896136" id="path3378"></path>
                                    <path d="M60.19125,14.5554818 C58.1814545,14.5554818 56.8990227,13.6626636 56.1804091,12.9076977 L55.9405,12.6650841 L55.8558636,12.9950705 C55.64475,13.8037773 54.9331364,14.2488341 53.8622955,14.2488341 L52.0914545,14.2488341 L52.1025909,0.481472727 L56.0268864,0.481472727 L56.0268864,6.82675 C56.0268864,7.44710909 56.1075455,7.98550455 56.2715682,8.47669773 C56.7084318,9.96329091 57.9269091,10.8875932 59.4498864,10.8875932 C60.6748864,10.8875932 61.1535909,10.241175 61.1535909,8.57059318 L61.1535909,2.57431364 C61.1535909,1.14850909 61.8130227,0.481472727 63.2399091,0.481472727 L65.1074773,0.481472727 L65.1011136,9.23762955 C65.1011136,12.7166455 63.4044091,14.5554818 60.1923636,14.5554818" id="path3380"></path>
                                    <path d="M47.76625,14.2428523 L45.9061591,14.2428523 L45.9188864,3.59793636 L45.9176136,3.59793636 L45.9176136,0.478227273 L47.9030682,0.478227273 C47.9280455,0.478227273 47.9480909,0.475522727 47.9730682,0.475522727 L48.8978636,0.478227273 L49.8183636,0.478227273 L49.8183636,0.483636364 L49.8247273,0.483636364 L49.8326818,12.1527159 C49.8326818,13.5606068 49.1595682,14.2428364 47.7675227,14.2428364" id="path3382"></path>
                                    <path d="M23.3555,3.6001 C21.3881818,3.6001 20.01825,5.162675 20.01825,7.39554773 C20.01825,9.62786364 21.3881818,11.1893568 23.3555,11.1893568 C25.3301364,11.1893568 26.7162955,9.62786364 26.7162955,7.39554773 C26.7162955,5.12740455 25.3632273,3.6001 23.3555,3.6001 Z M23.3555,14.5250795 C19.1889091,14.5250795 16.1674545,11.5258659 16.1674545,7.39554773 C16.1674545,3.26522955 19.1889091,0.266556818 23.3555,0.266556818 C27.52925,0.266556818 30.5675682,3.26522955 30.5675682,7.39554773 C30.5675682,11.5258659 27.52925,14.5250795 23.3555,14.5250795 Z" id="path3384"></path>
                                </g>
                            </g>
                        </g>
                    </g>
                </g>
            </g>
            <g id="g3386" transform="translate(76.523045, 13.453109) scale(-1, 1) rotate(-180.000000) translate(-76.523045, -13.453109) translate(0.795773, 0.089473)">
                <g id="g3388-Clipped">
                    <mask id="mask-6" fill="white">
                        <use xlink:href="#path-5"></use>
                    </mask>
                    <g id="path3392"></g>
                    <g id="g3388" mask="url(#mask-6)">
                        <g id="g3394-Clipped">
                            <mask id="mask-8" fill="white">
                                <use xlink:href="#path-7"></use>
                            </mask>
                            <g id="path3398"></g>
                            <g id="g3394" mask="url(#mask-8)">
                                <g id="g3400-Clipped">
                                    <mask id="mask-10" fill="white">
                                        <use xlink:href="#path-9"></use>
                                    </mask>
                                    <g id="path3404"></g>
                                    <g id="g3400" mask="url(#mask-10)" fill="#A1A7B3" fill-rule="nonzero">
                                        <g transform="translate(79.545455, 0.000000)">
                                            <path d="M42.24675,8.69100909 C40.2802273,8.69100909 38.9093409,10.2535841 38.9093409,12.4864568 C38.9093409,14.7187727 40.2802273,16.2802659 42.24675,16.2802659 C44.2217045,16.2802659 45.6085,14.7187727 45.6085,12.4864568 C45.6085,10.2183136 44.2547955,8.69100909 42.24675,8.69100909 Z M42.24675,19.6159886 C38.0811136,19.6159886 35.0596591,16.616775 35.0596591,12.4864568 C35.0596591,8.35613864 38.0811136,5.35746591 42.24675,5.35746591 C46.4209773,5.35746591 49.4586591,8.35613864 49.4586591,12.4864568 C49.4586591,16.616775 46.4209773,19.6159886 42.24675,19.6159886 Z" id="path3406"></path>
                                            <path d="M8.14847727,9.29673182 C6.00297727,9.29673182 5.23934091,11.1686591 5.23934091,12.9228273 C5.23934091,13.6956909 5.43470455,16.2145932 7.94229545,16.2145932 C9.18845455,16.2145932 10.8492045,15.8574659 10.8492045,12.7931045 C10.8492045,9.90297955 9.37952273,9.29673182 8.14847727,9.29673182 Z M12.8866818,19.3706705 C12.1419773,19.3706705 11.5689318,19.0737909 11.2817727,18.5315773 L11.1732727,18.3210045 L10.9914318,18.4789341 C10.3579318,19.0271136 9.22218182,19.6773182 7.37784091,19.6773182 C3.70825,19.6773182 1.23772727,16.9212432 1.23772727,12.8197045 C1.23772727,8.72303409 3.794,5.86005 7.45165909,5.86005 C8.701,5.86005 9.68831818,6.15150455 10.4708864,6.74418182 L10.7737955,6.97158636 L10.7737955,6.58895682 C10.7737955,4.75012045 9.58459091,3.735725 7.42890909,3.735725 C6.38129545,3.735725 5.42770455,3.99081136 4.79006818,4.22203409 C3.95738636,4.47331818 3.46945455,4.26545 3.13186364,3.43015909 L2.82036364,2.65945909 L2.37968182,1.53379545 L2.65268182,1.38833864 C4.03231818,0.656170455 5.82829545,0.219259091 7.45165909,0.219259091 C10.7938409,0.219259091 14.6961818,1.92999545 14.6961818,6.74418182 L14.7105,19.3706705 L12.8873182,19.3706705 L12.8866818,19.3706705 Z" id="path3408"></path>
                                        </g>
                                    </g>
                                </g>
                            </g>
                        </g>
                    </g>
                </g>
            </g>
            <g id="g3410" transform="translate(76.523045, 13.453109) scale(-1, 1) rotate(-180.000000) translate(-76.523045, -13.453109) translate(0.795773, 0.089473)">
                <g id="g3412-Clipped">
                    <mask id="mask-12" fill="white">
                        <use xlink:href="#path-11"></use>
                    </mask>
                    <g id="path3416"></g>
                    <g id="g3412" mask="url(#mask-12)">
                        <g transform="translate(0.000000, -1.272727)" id="g3418-Clipped">
                            <g>
                                <mask id="mask-14" fill="white">
                                    <use xlink:href="#path-13"></use>
                                </mask>
                                <g id="path3422"></g>
                                <g id="g3418" mask="url(#mask-14)" fill="#A1A7B3" fill-rule="nonzero">
                                    <g transform="translate(0.000000, 6.363636)">
                                        <path d="M7.644,3.75804545 L4.44945455,3.76122727 L4.44945455,7.58053864 C4.44945455,8.39683409 4.76588636,8.82127273 5.46540909,8.91895455 L7.644,8.91895455 C9.19895455,8.91895455 10.2036136,7.93820682 10.2047273,6.35176818 C10.2036136,4.72352045 9.22393182,3.75904773 7.644,3.75796591 L7.644,3.75804545 Z M4.44945455,14.0610432 L4.44945455,15.0662114 C4.44945455,15.946 4.82172727,16.3644568 5.63865909,16.4181977 L7.27331818,16.4181977 C8.67522727,16.4181977 9.51490909,15.5791045 9.51490909,14.1755568 C9.51490909,13.1052568 8.94011364,11.8563932 7.32486364,11.8563932 L4.44945455,11.8563932 L4.44945455,14.0610432 Z M11.7238864,10.2493205 L11.1463864,10.5738818 L11.6505455,11.0048273 C12.2367955,11.5090341 13.2196591,12.6422864 13.2196591,14.6005205 C13.2196591,17.5965045 10.8956591,19.5303182 7.29877273,19.5303182 L3.19406818,19.5303182 L3.19406818,19.5314 L2.72665909,19.5314 C1.66027273,19.4923114 0.807068182,18.6250114 0.795136364,17.5519909 L0.795136364,0.546063636 L2.67893182,0.546063636 C2.68370455,0.544981818 2.68529545,0.546063636 2.68688636,0.544981818 L7.37990909,0.546063636 C11.3783409,0.546063636 13.9591136,2.72249091 13.9591136,6.0935 C13.9591136,7.90844091 13.125,9.46016591 11.7230909,10.2493205 L11.7238864,10.2493205 Z" id="path3424"></path>
                                        <path d="M146.5345,14.5109682 C144.906205,14.5109682 143.332159,13.7484136 142.321614,12.4697045 L142.037159,12.1093159 L141.814114,12.5125795 C141.087386,13.8379659 139.836295,14.5109682 138.096795,14.5109682 C136.272659,14.5109682 135.04925,13.4933273 134.480977,12.8881614 L134.109182,12.4854386 L133.966,13.0151636 C133.758545,13.7777182 133.079705,14.1978136 132.051182,14.1978136 L130.401727,14.1978136 L130.385818,0.483652273 L134.133523,0.483652273 L134.133523,6.53745909 C134.133523,7.067725 134.199227,7.59256591 134.332068,8.14128636 C134.690341,9.60398409 135.673364,11.1774091 137.326,11.0200205 C138.345295,10.9223227 138.842932,10.1347909 138.842932,8.61346818 L138.842932,0.483652273 L142.617205,0.483652273 L142.617205,6.53745909 C142.617205,7.20015227 142.679091,7.69622955 142.828477,8.19392955 C143.132341,9.59041364 144.158636,11.0221841 145.753205,11.0221841 C146.907091,11.0221841 147.333773,10.3687182 147.333773,8.61346818 L147.333773,2.48856364 C147.333773,1.10292955 147.951841,0.483652273 149.336409,0.483652273 L151.100409,0.483652273 L151.103591,9.23871136 C151.103591,12.7361818 149.56375,14.5109682 146.533705,14.5109682" id="path3426"></path>
                                        <path d="M112.435114,5.24517955 C112.423977,5.23165682 110.811273,3.53118182 108.688045,3.53118182 C106.753659,3.53118182 104.799227,4.718175 104.799227,7.36786591 C104.799227,9.65554545 106.314568,11.2544886 108.483455,11.2544886 C109.187909,11.2544886 109.988932,11.0021068 110.114295,10.5776841 L110.13275,10.5060295 C110.4215,9.54373636 111.296023,9.492175 111.468,9.492175 L113.521227,9.48994773 L113.521227,11.2848114 C113.521227,13.652275 110.509955,14.5109045 108.483455,14.5109045 C104.150136,14.5109045 101.005864,11.4937773 101.005864,7.33903864 C101.005864,3.18592273 104.115932,0.173138636 108.404227,0.173138636 C112.124727,0.173138636 114.148045,2.61874773 114.166977,2.64318409 L114.275,2.77561136 L112.648932,5.47306136 L112.435114,5.24511591" id="path3428"></path>
                                    </g>
                                </g>
                            </g>
                        </g>
                    </g>
                </g>
            </g>
        </g>
    </g>
</svg>