<?xml version="1.0" encoding="UTF-8"?>
<svg width="118px" height="28px" viewBox="0 0 118 28" version="1.1" xmlns="http://www.w3.org/2000/svg" xmlns:xlink="http://www.w3.org/1999/xlink">
    <!-- Generator: Sketch 51 (57462) - http://www.bohemiancoding.com/sketch -->
    <title>logo</title>
    <desc>Created with Sketch.</desc>
    <defs></defs>
    <g id="Brands" stroke="none" stroke-width="1" fill="none" fill-rule="evenodd">
        <g id="992px" transform="translate(-364.000000, -383.000000)" fill="#A1A7B3">
            <g id="LOGOS" transform="translate(17.000000, 379.000000)">
                <g id="logo-gray-mercedesbenz-copy-2" transform="translate(347.000000, 4.000000)">
                    <path d="M25.284317,20.1242069 L16.2578361,12.5323322 L14.2767826,1.3952483 C21.2529413,1.46397449 26.8869507,7.0806771 26.8869507,13.9999123 C26.8869507,16.2227467 26.3049199,18.3108362 25.284317,20.1242062 L25.284317,20.1242069 Z M25.1503386,20.3534706 L25.2166897,20.2400109 L25.2181478,20.2409133 C25.1960918,20.2787928 25.1740352,20.3164925 25.1516147,20.3541921 L25.1503386,20.3534706 Z M14.1475436,26.6061971 C9.5104424,26.6061971 5.45245448,24.1542787 3.22404262,20.4891175 L13.8538856,16.3686742 L25.077608,20.4779331 C22.8508368,24.1492276 18.7895675,26.6061971 14.1475436,26.6061971 Z M3.05962416,20.2102482 L3.06126421,20.2091659 L3.13253674,20.331645 L3.13071411,20.3327272 C3.10665543,20.2919618 3.08313886,20.2510142 3.05962852,20.2102482 L3.05962416,20.2102482 Z M13.8538875,1.39741338 L12.1280286,12.5323316 L2.98944583,20.0857863 C1.98233158,18.2812539 1.40832102,16.2072335 1.40832102,13.9999104 C1.40832102,7.13515203 6.95410524,1.55181955 13.8538875,1.39741338 Z M14.1475436,1.39380593 C14.1573877,1.39380593 14.1670492,1.39416668 14.1765274,1.39416668 L14.1765274,1.39579003 L14.0638766,1.39633176 L14.0640592,1.39470779 C14.0921308,1.39470779 14.1196552,1.39380593 14.1475449,1.39380593 L14.1475436,1.39380593 Z M14.1475436,1.23121098e-06 C6.3341601,1.23121098e-06 0,6.26806123 0,13.9999123 C0,21.7317609 6.33415761,28 14.1475442,28 C21.9609296,28 28.2952704,21.7317609 28.2952704,13.9999104 C28.2952704,6.26805939 21.9609296,0 14.1475442,0 L14.1475436,1.23121098e-06 Z M88.2830871,16.0456216 L88.2830871,15.3326982 L91.3415697,15.3326982 L91.3415697,16.0456216 L88.2830871,16.0456216 Z M37.4371619,11.0119498 L37.163508,18.1573873 L37.163508,18.2816091 C37.163508,18.8865154 37.3405739,19.0107384 38.3010457,19.0809482 L38.3010457,19.410408 C37.6034934,19.3564009 37.3298438,19.3401982 36.9488741,19.3401982 C36.5679044,19.3401982 36.2942485,19.3564009 35.5806073,19.4104394 L35.5806073,19.0809605 C36.535714,19.0107507 36.6752182,18.9027304 36.7020498,18.1574046 L36.9918009,11.3954338 L36.9918009,11.3144201 C36.9918009,10.6825134 36.7986335,10.5420876 35.8542569,10.4880806 L35.8542569,10.1424242 C36.3854672,10.1856336 36.5947297,10.1964375 36.9756994,10.1964375 C37.4800781,10.1964375 37.753734,10.1802347 38.2742141,10.1262277 L40.8175804,17.0934351 L43.4038735,10.1262277 C44.0209373,10.1802409 44.3053171,10.1964436 44.7184834,10.1964436 C45.0618914,10.1964436 45.2818841,10.1802409 45.7969991,10.1424366 L45.7969991,10.4880972 C44.8687177,10.5421086 44.6594552,10.6825331 44.6594552,11.2982402 L44.6594552,11.3954566 L44.8096958,18.1574273 C44.825791,18.9027551 44.9438412,19.0107735 45.9311383,19.0809858 L45.9311383,19.4104394 C45.0672502,19.3294257 44.7399374,19.3024209 44.2194573,19.3024209 C43.6989771,19.3024209 43.3716644,19.3294245 42.5077825,19.4104388 L42.5077825,19.080979 C43.4360576,19.0269689 43.6453202,18.8757423 43.6453202,18.2276328 L43.6453202,18.1574181 L43.5219112,11.0227783 L41.2629247,17.1636425 L41.0965826,17.6173191 L40.9034153,18.1250071 L40.7263431,18.6488997 L40.5761025,19.1025763 L40.372205,19.1025763 L40.2219644,18.6596974 L40.028797,18.1250071 L39.8356296,17.5903168 L39.6692901,17.1096336 L37.4371352,11.011975 L37.4371619,11.0119498 Z M49.4940214,19.0701456 C48.2491649,19.0701456 47.7018581,18.1087791 47.6857598,15.9592066 L51.7637412,15.9592066 C51.7369159,13.836642 50.8730277,12.7078493 49.2579366,12.7078493 C47.6160139,12.7078493 46.5911551,14.0418849 46.5911551,16.1644495 C46.5911551,18.2870203 47.6160139,19.5238333 49.3813519,19.5238333 C50.7227934,19.5238333 51.5974116,18.681291 51.7744838,17.2662417 L51.2271783,17.2662417 C51.0662076,18.4382499 50.4652389,19.0701567 49.494037,19.0701567 L49.4940214,19.0701456 Z M47.7125883,15.4623268 C47.8520987,13.8798514 48.3672113,13.0643095 49.2471959,13.0643095 C50.1379118,13.0643095 50.5886355,13.836642 50.6691215,15.4623268 L47.7125883,15.4623268 Z M52.5793319,13.215533 L52.5793319,12.9670931 C53.3573664,12.8968833 53.8241878,12.8158696 54.3875922,12.6484372 C54.4573468,13.1561271 54.4841759,13.3775665 54.5110044,13.7934388 L54.5110044,13.9446685 C54.8114868,13.1615321 55.4017203,12.7078555 56.1100003,12.7078555 C56.7968175,12.7078555 57.3011987,13.1615382 57.3011987,13.8258504 C57.3011987,14.22552 57.0704714,14.4847638 56.7270629,14.4847638 C56.4104833,14.4847638 56.1636584,14.2903309 56.1636584,14.0148844 C56.1636584,13.9878778 56.1797555,13.9338707 56.1904869,13.8798637 L56.217316,13.7394441 L56.217316,13.6152272 C56.217316,13.4207943 56.050977,13.2857736 55.8041521,13.2857736 C55.0905065,13.2857736 54.6397828,14.1553225 54.6397828,15.5163585 L54.6397828,18.3950529 C54.6397828,18.9891553 54.7792933,19.0971756 55.6109848,19.1403849 L55.6109848,19.4158315 C54.8597786,19.3456198 54.5700282,19.3348178 54.0924755,19.3348178 C53.5988256,19.3348178 53.3144409,19.3510205 52.5578685,19.4158315 L52.5578685,19.1403849 C53.3949269,19.0971781 53.5451681,18.9891596 53.5451681,18.3950566 L53.5451681,13.8906712 C53.5290729,13.2965688 53.4646859,13.2317579 52.7510383,13.2155552 L52.5793375,13.2155552 L52.5793319,13.215533 Z M62.532813,12.5836263 L62.532813,14.8574206 L62.2323305,14.8574206 C61.9855062,13.6584119 61.4811244,13.0805122 60.644066,13.0805122 C59.6192072,13.0805122 59.0182416,14.1985072 59.0182416,16.1644495 C59.0182416,18.0925875 59.5494519,19.0701567 60.6065074,19.0701567 C61.4543003,19.0701567 61.958679,18.4652566 62.1250211,17.2500452 L62.688428,17.2500452 C62.5113621,18.7245003 61.7333275,19.5238394 60.4991998,19.5238394 C58.9109341,19.5238394 57.8324183,18.1736073 57.8324183,16.1644557 C57.8324183,14.1121008 58.9270355,12.7078555 60.5421266,12.7078555 C61.1323589,12.7078555 61.4972333,12.8590851 61.937225,13.2857551 L62.3074645,12.5836386 L62.5328286,12.5836386 L62.532813,12.5836263 Z M66.5571312,19.0701505 C65.3122759,19.0701505 64.7649679,18.108784 64.7488715,15.9592128 L68.8268479,15.9592128 C68.8000188,13.8366482 67.9361319,12.7078555 66.3210383,12.7078555 C64.6791169,12.7078555 63.6542568,14.041891 63.6542568,16.1644557 C63.6542568,18.2870203 64.6791169,19.5238394 66.4444511,19.5238394 C67.7858907,19.5238394 68.6605089,18.6812971 68.8375792,17.2662479 L68.2902719,17.2662479 C68.1292993,18.4382561 67.5283344,19.0701628 66.5571318,19.0701628 L66.5571312,19.0701505 Z M64.7810662,15.462333 C64.9205767,13.8798575 65.4356918,13.0643157 66.3156751,13.0643157 C67.2063948,13.0643157 67.6571166,13.8366482 67.7376051,15.462333 L64.7810662,15.462333 Z M75.190638,17.9845672 L75.190638,10.0343849 C74.503822,10.2180169 73.8921233,10.3260354 73.1248251,10.4124504 L73.1248251,10.6446875 C73.9887132,10.6446875 74.096027,10.7419039 74.096027,11.4548287 L74.096027,13.8636437 C73.5916483,13.0373011 73.1945834,12.7888581 72.4541043,12.7888581 C70.9892538,12.7888581 69.9643949,14.1822996 69.9643949,16.1644427 C69.9643949,18.1465859 71.0053552,19.5400268 72.4970373,19.5400268 C73.2750719,19.5400268 73.8116472,19.1835647 74.1926169,18.411231 C74.2462738,18.9351236 74.2462738,18.9891307 74.3857843,19.5130233 C74.9491912,19.3347932 75.1799203,19.2807861 75.9847802,19.1835697 L76.1886777,19.1565692 L76.1886777,18.924332 C75.2711327,18.8919266 75.1906504,18.8217168 75.1906504,17.9845733 L75.190638,17.9845672 Z M72.6204401,19.1511703 C71.633143,19.1511703 71.1180279,18.1195941 71.1180279,16.1482529 C71.1180279,14.1499052 71.5955813,13.172336 72.5828784,13.172336 C73.5970071,13.172336 74.1174873,14.2201211 74.1174873,16.2454693 C74.1121222,18.1628034 73.6023784,19.1511765 72.6204401,19.1511765 L72.6204401,19.1511703 Z M79.606656,19.0701567 C78.3618044,19.0701567 77.8144927,18.1087902 77.7983975,15.959219 L81.8763727,15.959219 C81.8495473,13.8366543 80.9856592,12.7078616 79.3705681,12.7078616 C77.7286454,12.7078616 76.7037866,14.0418972 76.7037866,16.1644618 C76.7037866,18.2870326 77.7286454,19.5238456 79.4939833,19.5238456 C80.8354248,19.5238456 81.7100431,18.6813033 81.8871153,17.2662541 L81.3398098,17.2662541 C81.1842041,18.4382623 80.5778704,19.070169 79.6066685,19.070169 L79.606656,19.0701567 Z M77.8305942,15.4623391 C77.9647396,13.8798637 78.4852197,13.0643218 79.365203,13.0643218 C80.2559227,13.0643218 80.7066445,13.8366543 80.787133,15.4623391 L77.8305942,15.4623391 Z M83.0407482,19.5400545 L83.0407482,17.2392413 L83.3412356,17.2230386 C83.5880599,18.4760604 84.162197,19.0809605 85.1226688,19.0809605 C85.9275349,19.0809605 86.5338624,18.5462702 86.5338624,17.8441476 C86.5338624,17.3742682 86.276308,17.0610112 85.6055872,16.7585581 L85.0851133,16.5263209 L84.4573193,16.2346716 C83.4592921,15.7647923 83.1427094,15.3813255 83.1427094,14.5819864 C83.1427094,13.4963969 83.9905023,12.751071 85.1924271,12.751071 C85.7236374,12.751071 86.1207023,12.875294 86.5875255,13.1939499 L86.8182546,12.6268541 L87.0650789,12.6268541 L87.0650789,14.7602226 L86.7485025,14.7602226 C86.6250935,13.6584304 86.1743717,13.1345439 85.3104836,13.1345439 C84.5861059,13.1345439 84.022699,13.6314299 84.022699,14.2795455 C84.022699,14.8304416 84.2266027,15.0086724 85.4714543,15.5595679 L86.0455913,15.8080109 C87.0865516,16.2616875 87.4567849,16.7045664 87.4567849,17.5147063 C87.4567849,18.6705056 86.5392399,19.4968513 85.2514616,19.4968513 C84.6236676,19.4968513 84.130019,19.3294189 83.6095389,18.9189516 L83.2822324,19.5400545 L83.0407482,19.5400545 Z M97.8019509,12.4324089 C97.8019509,11.7140835 97.5014697,11.0821768 96.9809896,10.6825073 C96.5141726,10.3368509 95.9829623,10.1856213 95.0922426,10.1856213 L91.4918208,10.1856213 L91.4918208,10.5312838 C92.4791242,10.585297 92.6132634,10.6987161 92.6132634,11.4386432 L92.6132634,18.1196002 C92.6132634,18.8649323 92.5059496,18.9621487 91.4918208,19.0431624 L91.4918208,19.3726221 L94.9527384,19.3726221 C95.9668671,19.3726221 96.5141726,19.2483991 97.0883096,18.8919389 C97.7751256,18.44906 98.2258536,17.6119165 98.2258536,16.7423676 C98.2258536,15.9970418 97.909271,15.3219257 97.3780607,14.9114523 C97.0883096,14.690019 96.7878284,14.5657959 96.2995449,14.4685795 C97.2868483,14.1013216 97.8019572,13.3991989 97.8019572,12.4324274 L97.8019509,12.4324089 Z M93.7669026,10.6176963 L94.9312719,10.6176963 C96.079546,10.6176963 96.589296,11.1847982 96.589296,12.4648206 C96.589296,13.0967273 96.4390554,13.5504101 96.1385742,13.9122691 C95.838093,14.2579316 95.4678535,14.3659519 94.7005553,14.3659519 L93.7722801,14.3659519 L93.7722801,10.6177025 L93.7669026,10.6176963 Z M95.0707823,14.7872231 C95.79516,14.7872231 96.2083263,14.9114399 96.5195377,15.2300958 C96.8361203,15.5487517 97.0131862,16.1374552 97.0131862,16.8017674 C97.0131862,18.1790062 96.3263703,18.9513387 95.1137091,18.9513387 L94.6200605,18.9513387 C93.8956829,18.9513387 93.7722739,18.8433184 93.7722739,18.2330132 L93.7722739,14.7926096 L95.0707886,14.7926096 L95.0707886,14.7872108 L95.0707823,14.7872231 Z M102.239435,19.0701628 C100.994584,19.0701628 100.447272,18.1087964 100.431177,15.9592251 L104.509158,15.9592251 C104.482333,13.8366605 103.618445,12.7078616 102.003348,12.7078616 C100.361425,12.7078616 99.336566,14.0418972 99.336566,16.1644618 C99.336566,18.2870326 100.361425,19.5238456 102.126763,19.5238456 C103.468204,19.5238456 104.342823,18.6813033 104.519895,17.2662541 L103.972589,17.2662541 C103.811619,18.4382623 103.210656,19.070169 102.239454,19.070169 L102.239435,19.0701628 Z M100.463374,15.4623453 C100.602884,13.8798637 101.117999,13.064328 101.997982,13.064328 C102.888702,13.064328 103.339424,13.8366605 103.419912,15.4623453 L100.463374,15.4623453 Z M105.233536,13.2749636 L105.233536,13.0427264 C106.027666,12.9347122 106.494489,12.8212931 107.041794,12.6268541 C107.111547,12.94551 107.149108,13.3019763 107.181305,13.8258628 C107.674954,13.0805369 108.232989,12.7510771 109.027125,12.7510771 C109.848086,12.7510771 110.561728,13.1777533 110.835384,13.8528694 C110.969529,14.1823291 111.039281,14.5711948 111.039281,15.0896885 L111.039281,18.3950591 C111.039281,18.9891615 111.178792,19.0971817 112.010483,19.1403886 L112.010483,19.4158352 C111.286105,19.3456192 111.012456,19.3348172 110.518801,19.3348172 C110.014422,19.3348172 109.740766,19.3510199 109.027119,19.4158308 L109.027119,19.1403843 C109.767598,19.1133796 109.944664,18.9729556 109.944664,18.4220589 L109.944664,15.0518712 C109.944664,13.8528638 109.590526,13.3721794 108.715908,13.3721794 C107.787632,13.3721794 107.293984,13.966283 107.293984,15.0950806 L107.293984,18.4274578 C107.293984,18.978352 107.471056,19.1187766 108.184704,19.1457832 L108.184704,19.4212297 C107.471056,19.3510168 107.197405,19.340216 106.709121,19.340216 C106.231568,19.340216 105.941817,19.3564188 105.233536,19.4212297 L105.233537,19.1457832 C106.070593,19.1025738 106.204739,18.9945548 106.204739,18.4004512 L106.204739,13.9392751 C106.188643,13.3721794 106.108155,13.2911657 105.426704,13.2911657 C105.373047,13.2857668 105.303293,13.2749629 105.233537,13.2749629 L105.233536,13.2749636 Z M112.541693,19.3726221 L116.249435,13.2317604 L114.564586,13.2317604 C113.673872,13.2317604 113.453873,13.4261932 112.96559,14.6630062 L112.691934,14.6630062 L113.008517,12.8753002 L117.714286,12.8753002 L113.990442,19.0161496 L115.589438,19.0161496 C116.517714,19.0161496 116.904048,18.6434867 117.31185,17.3904709 L117.601601,17.3904709 L117.247462,19.372616 L112.541693,19.3726221 Z" id="logo"></path>
                </g>
            </g>
        </g>
    </g>
</svg>