<?xml version="1.0" encoding="UTF-8"?>
<svg width="32px" height="32px" viewBox="0 0 32 32" version="1.1" xmlns="http://www.w3.org/2000/svg" xmlns:xlink="http://www.w3.org/1999/xlink">
    <!-- Generator: Sketch 51.1 (57501) - http://www.bohemiancoding.com/sketch -->
    <title>Combined Shape</title>
    <desc>Created with Sketch.</desc>
    <defs></defs>
    <g id="Brands" stroke="none" stroke-width="1" fill="none" fill-rule="evenodd">
        <g id="992px---without-copy" transform="translate(-252.000000, -339.000000)" fill="#A1A7B3">
            <g id="Volkswagen_Logo_till_1995" transform="translate(252.000000, 339.000000)">
                <path d="M16.0693718,0.137573848 C24.8380783,0.137573848 31.9895583,7.28825783 31.9895583,16.0701637 C31.9895583,24.8257517 24.8380783,31.989555 16.0693718,31.989555 C7.3005655,31.989555 0.136742298,24.8257517 0.136742298,16.0701637 C0.136742298,7.28825783 7.30056567,0.136778738 16.0693718,0.136778738 L16.0693718,0.137573848 Z M16.0693718,2.15955567 L16.0701472,2.15955567 C8.42334983,2.15955567 2.1726785,8.4101675 2.1726785,16.0701637 C2.1726785,23.71696 8.42334983,29.9544533 16.0693718,29.9544533 C23.7161683,29.9544533 29.96678,23.71696 29.96678,16.0701637 C29.96678,8.41016767 23.7161683,2.15955567 16.0693718,2.15955567 Z M6.76557117,8.592647 C7.705101,7.43098133 8.84032917,6.45259 10.1316187,5.70875833 L13.6420792,15.3783327 L18.5751433,15.3783327 L22.07147,5.74831533 C23.2720967,6.45259 24.3419267,7.36578167 25.229475,8.43660517 L20.19241,21.5242267 L18.366225,16.8008367 L13.5768597,16.8008367 L11.7505757,21.5242267 L6.76557117,8.59264683 Z M27.23973,11.8422887 C27.7352867,13.159996 27.996085,14.5824598 27.996085,16.0701632 C27.996085,20.663115 25.3739883,24.65659 21.5629933,26.65273 L27.23973,11.8422893 Z M19.08362,27.6180033 C18.1177517,27.8656817 17.1129233,27.9960817 16.0693718,27.9960817 C14.9597663,27.9960817 13.8897778,27.8533583 12.8725848,27.5659233 L12.8850085,27.3182433 L15.9653108,19.33209 L19.0448567,27.3182433 L19.0836183,27.6180033 Z M10.341271,26.5223317 C6.6351125,24.499555 4.12942117,20.558955 4.12942117,16.0701637 C4.12942117,14.6740977 4.36467633,13.3424758 4.80805333,12.1030875 L10.341271,26.5223317 Z M16.0693718,4.13025267 C17.1137183,4.13025267 18.14419,4.26065183 19.1231767,4.521649 L16.1089687,12.8602375 L13.081462,4.50833067 C14.0342107,4.260652 15.0389798,4.13025267 16.0693718,4.13025267 Z" id="Combined-Shape"></path>
            </g>
        </g>
    </g>
</svg>